PathFileType	4	(X/Y/Z)	 s08c0401.trc
DataRate	CameraRate	NumFrames	NumMarkers	Units	OrigDataRate	OrigDataStartFrame	OrigNumFrames
200	200	7	50	mm	200	1251	2000
Frame#	Time	racr			lacr			c7			jug			rlel			rdr			llel			ldr			s2			lic			ric			lasi			rasi			rpsi			lpsi			rgt			lgt			rth1			rth2			rth3			rth4			rlfc			rmfc			rsh1			rsh2			rsh3			rsh4			rlmal			rmmal			rcal			rtoe			rmt5			lth1			lth2			lth4			lth3			llfc			lmfc			llmal			lmmal			lcal			lmt5			lsh1			lsh2			lsh3			lsh4			ltoe			SBIKE			LBIKE			RBIKE			
		X1	Y1	Z1	X2	Y2	Z2	X3	Y3	Z3	X4	Y4	Z4	X5	Y5	Z5	X6	Y6	Z6	X7	Y7	Z7	X8	Y8	Z8	X9	Y9	Z9	X10	Y10	Z10	X11	Y11	Z11	X12	Y12	Z12	X13	Y13	Z13	X14	Y14	Z14	X15	Y15	Z15	X16	Y16	Z16	X17	Y17	Z17	X18	Y18	Z18	X19	Y19	Z19	X20	Y20	Z20	X21	Y21	Z21	X22	Y22	Z22	X23	Y23	Z23	X24	Y24	Z24	X25	Y25	Z25	X26	Y26	Z26	X27	Y27	Z27	X28	Y28	Z28	X29	Y29	Z29	X30	Y30	Z30	X31	Y31	Z31	X32	Y32	Z32	X33	Y33	Z33	X34	Y34	Z34	X35	Y35	Z35	X36	Y36	Z36	X37	Y37	Z37	X38	Y38	Z38	X39	Y39	Z39	X40	Y40	Z40	X41	Y41	Z41	X42	Y42	Z42	X43	Y43	Z43	X44	Y44	Z44	X45	Y45	Z45	X46	Y46	Z46	X47	Y47	Z47	X48	Y48	Z48	X49	Y49	Z49	X50	Y50	Z50	
1251	6.2550	857.907863	1417.872819	-110.617620	882.441422	1309.281757	-427.869202	859.068773	1426.622180	-281.368664	623.197127	1300.400680	-36.981967	743.364016	1205.636902	43.241217	774.279802	927.846977	-41.441382	693.667272	1131.283596	-581.334747	785.980454	939.561409	-430.287721	293.581136	1269.416747	-159.707866	408.566203	1239.349064	-340.401942	487.644363	1265.233162	-37.105786	437.517870	1203.430430	-306.367617	493.442420	1193.643886	-74.820560	341.942775	1303.876484	-120.360886	317.201552	1309.578784	-211.658245	405.135807	1141.907889	12.748489	338.257856	1148.362475	-358.756398	472.203832	977.295362	-9.062167	512.124736	900.189729	-28.095753	510.374980	814.332480	-37.023409	542.937408	910.316599	-44.165051	516.423731	695.699968	-56.084639	481.751042	702.221592	-163.287697	399.541763	629.441602	-19.951548	348.612744	559.499048	-39.087423	269.464230	522.965038	-41.377198	367.635826	541.364596	-72.247192	166.028630	452.829410	-46.160598	192.423050	453.230286	-134.037208	111.991946	508.671309	-95.440198	209.367688	227.103786	-102.748552	148.659274	296.853835	-34.483970	411.884794	1036.165208	-381.569398	480.046436	982.677134	-392.194040	509.598058	1003.999064	-386.598443	512.315094	900.176310	-399.925536	571.625162	780.041658	-391.941820	580.067287	746.933518	-290.508668	367.733082	411.042781	-385.765677	403.984707	422.334764	-302.285692	295.223920	399.308029	-346.289947	484.611510	302.226832	-414.426798	510.632230	666.634540	-413.846420	488.905732	584.487823	-398.089401	428.764454	520.251000	-395.257692	513.475254	575.131552	-368.024424	572.362986	316.857883	-348.675826	-133.156420	945.879839	-222.835101	26.894340	84.344219	-426.372172	18.715946	80.579193	-28.174881	
1252	6.2600	856.713970	1419.722668	-108.215053	883.025974	1311.316252	-426.454379	858.386153	1428.633727	-279.274256	623.390471	1300.624444	-36.659301	742.509807	1205.619104	43.552854	773.980769	927.689959	-41.813051	694.508507	1132.409107	-578.993240	786.726340	939.394825	-430.795308	293.109869	1267.125571	-160.486290	409.663725	1236.214017	-341.772283	487.234276	1265.014332	-38.050811	437.813450	1199.943078	-307.765982	493.597589	1193.564438	-76.177668	340.965293	1302.028417	-121.608376	316.603449	1307.131180	-213.219616	406.693285	1141.516963	12.378755	337.533229	1143.330106	-358.715569	473.950012	977.442018	-8.948958	514.935083	900.766212	-28.287777	513.937576	815.003838	-37.126030	545.589413	911.321673	-43.997818	522.542924	697.110926	-57.663607	487.752319	703.341838	-164.095283	404.565447	634.573341	-21.520762	351.607225	565.370033	-40.815662	271.870014	530.772562	-42.623661	370.684346	546.615000	-73.396177	167.381458	463.366894	-46.585390	186.221894	460.708545	-139.278047	113.576058	519.357629	-95.840239	210.124748	237.709363	-102.776809	149.672141	307.379585	-34.600152	410.151611	1030.373949	-381.119956	477.318596	975.741489	-391.940147	507.336642	996.730385	-386.432853	508.563635	892.759744	-398.575301	566.563583	772.846913	-390.457349	573.591310	739.631392	-289.773664	367.564394	401.041101	-386.663167	403.168010	412.322283	-303.358969	295.093455	390.374036	-347.619023	483.997590	290.820453	-414.259382	507.338916	658.043762	-412.757520	487.077691	575.574836	-397.094906	428.083722	510.247837	-394.931497	511.024051	566.998635	-366.249877	571.735385	304.633061	-348.354248	-133.285541	945.783157	-222.911123	26.825083	84.257734	-426.429175	18.665374	80.587513	-28.136323	
1253	6.2650	855.757081	1421.570274	-105.778354	883.609616	1313.575001	-425.144236	857.788478	1430.640595	-277.034018	623.808102	1300.752975	-36.095258	741.787089	1205.626921	44.176285	773.884997	927.675532	-42.467742	695.144189	1133.601467	-576.533529	787.674760	939.323907	-431.498600	292.832374	1264.530325	-161.201592	410.806682	1233.212291	-343.418594	486.534834	1264.589704	-38.984301	438.218562	1196.140212	-309.290111	493.342006	1193.099459	-77.476345	339.621768	1300.307540	-123.013451	316.210982	1304.074756	-215.264401	406.901310	1140.749402	11.487429	337.187149	1137.987537	-358.861198	474.950007	977.265049	-8.598141	517.145969	901.387711	-28.061682	517.699355	815.408029	-37.112804	547.922340	912.529950	-43.405290	528.420824	699.073326	-59.480866	492.733097	705.330097	-166.409709	409.488098	639.924752	-23.241345	354.897009	571.286960	-43.176598	274.622283	538.688128	-43.694300	373.984921	552.082569	-74.460765	169.232802	473.949164	-47.125258	188.510905	471.011042	-140.203265	115.634124	529.990566	-96.261942	211.611709	248.173608	-102.978996	151.356081	318.183117	-34.716959	408.470483	1024.219581	-380.782156	475.032008	968.646799	-391.200896	505.222850	989.100609	-386.343871	504.814882	885.060465	-397.232951	560.214945	766.121749	-390.159548	567.405888	732.197048	-288.470210	366.849795	391.017661	-386.887974	398.352087	399.025953	-309.395568	294.890782	380.685930	-347.378055	482.585749	279.745707	-414.062780	503.898606	649.373595	-411.197156	484.626237	566.761584	-395.985024	426.721312	500.808819	-394.720013	508.150916	558.763440	-364.689696	570.467068	292.409980	-348.022854	-133.400419	945.725374	-223.013045	26.739700	84.363481	-426.563843	18.566183	80.520287	-28.141710	
1254	6.2700	855.010084	1423.185703	-103.204945	883.985541	1315.963233	-423.745622	857.253713	1432.632024	-274.703011	624.380591	1300.885550	-35.312256	741.107808	1205.570318	45.063266	773.509949	927.636177	-42.634336	695.630879	1134.970221	-574.014728	788.608034	939.334356	-432.003486	291.898055	1262.118554	-162.704631	412.085574	1230.310049	-345.318552	485.475391	1263.971396	-38.749041	438.759820	1192.404708	-311.282467	492.622462	1192.550039	-78.654245	338.407105	1298.551777	-124.325427	315.780308	1301.159181	-217.882871	407.026958	1140.290479	10.987062	337.183313	1132.563252	-359.208108	475.384365	976.792005	-8.069396	518.838011	901.904732	-27.692682	520.678858	815.770047	-37.192999	549.329587	913.443940	-43.617959	534.292092	701.252239	-61.257229	499.689598	706.774611	-167.179607	414.566162	645.471995	-24.958072	358.614859	577.804340	-44.278548	278.223267	546.388761	-44.462142	377.582967	557.868317	-75.289126	171.406194	484.422839	-47.673747	192.704464	486.492015	-135.731562	118.075181	540.552275	-96.629199	213.969148	258.699781	-103.027620	153.784261	328.822827	-34.805512	407.265476	1018.080576	-380.659177	472.785312	961.221878	-390.627894	503.569935	980.961651	-385.508117	501.066247	877.012576	-395.802851	554.670758	758.442579	-388.285906	563.368148	725.054231	-285.309909	365.463292	381.382325	-386.944788	396.928601	389.027049	-309.309560	293.784661	371.726451	-347.542173	480.531871	268.740215	-413.862485	499.801835	641.066635	-409.610476	481.482368	558.304910	-394.846934	424.341677	491.569008	-393.954662	504.768764	550.521482	-363.246615	568.567804	280.397276	-347.677470	-133.467785	945.689023	-223.095026	26.737351	84.207753	-426.468678	18.463986	80.431358	-28.252938	
1255	6.2750	854.501799	1424.534812	-100.523329	884.335118	1318.575351	-422.330761	856.824880	1434.526842	-272.304176	625.057138	1301.081684	-34.318158	740.478736	1205.420458	46.093039	773.253194	927.617431	-42.700708	696.048906	1136.419293	-571.408295	789.419228	939.471636	-432.303962	290.973029	1259.825131	-164.622166	413.528953	1227.639559	-347.159470	484.195931	1263.204857	-39.695387	439.473004	1188.922573	-312.940149	491.565324	1191.838575	-79.617253	337.178709	1296.880349	-125.954720	314.925922	1298.498530	-219.192397	406.319841	1139.708230	10.589312	337.563634	1127.271904	-359.733809	475.416920	976.317107	-7.444069	520.320031	902.367350	-27.354667	523.580044	816.229963	-37.551103	550.719049	914.613629	-43.710720	540.307582	703.803523	-62.794021	505.028845	709.552194	-169.598467	419.825172	651.258509	-26.688935	362.570182	584.422790	-45.443014	281.798826	554.237390	-45.455307	381.563440	564.003117	-75.750512	174.259087	494.757244	-48.147487	200.261135	493.829081	-137.404165	120.838688	550.991713	-96.972421	217.028475	269.280508	-103.087038	156.826373	339.403838	-34.865821	406.222937	1011.814977	-380.821759	470.642277	953.655966	-390.139496	501.772931	972.796469	-385.286755	497.240854	868.794872	-394.295658	543.331716	752.385926	-388.998184	560.399296	717.892545	-280.560984	363.276011	372.060243	-387.224181	399.830636	383.131625	-303.410570	292.123549	362.892443	-347.754528	477.924239	257.943243	-413.572736	494.990345	633.057012	-408.101887	477.576875	550.001869	-393.677925	421.082640	482.378585	-392.921553	500.826096	542.361626	-362.106627	565.904552	268.548742	-347.321615	-133.506321	945.661920	-223.122348	26.712471	84.193505	-426.481632	18.441368	80.383822	-28.241594	
1256	6.2800	854.185219	1425.648709	-97.748892	884.394022	1321.201808	-420.591219	856.617238	1436.262137	-269.720085	625.844106	1301.308162	-33.074039	739.931699	1205.253119	47.519851	773.233759	927.700891	-42.622091	696.308052	1138.071900	-568.815547	790.224503	939.710400	-432.155489	290.161922	1257.395211	-166.850284	415.231934	1225.153644	-349.138052	482.557522	1262.379088	-40.662531	440.375670	1185.570409	-314.528246	490.094329	1191.114420	-80.572619	335.712944	1295.810341	-127.628829	315.063418	1295.693729	-222.032068	404.080668	1138.469124	9.331232	338.323010	1122.151822	-360.427279	475.336034	975.895551	-6.805741	522.122673	903.112085	-27.082054	526.920926	816.989321	-38.330840	551.753878	916.161318	-43.001414	546.645075	706.909983	-64.113370	511.498665	712.873994	-171.032387	425.348506	657.116943	-28.205087	366.908341	591.109588	-46.426169	285.758432	562.272089	-46.363464	385.821528	570.021795	-76.354388	177.460121	505.119138	-48.690843	203.710865	503.410642	-137.268509	123.874670	561.146214	-97.372971	220.779274	279.988852	-102.796912	160.598321	349.818718	-34.871496	405.454494	1005.636935	-381.097424	468.545763	945.939739	-389.684499	499.822264	964.392642	-385.612671	493.137085	860.489314	-392.867346	543.956150	741.861673	-383.070705	553.623001	710.355365	-278.818125	361.029766	362.344411	-386.930626	410.138526	383.114490	-318.208270	289.836721	354.330930	-348.225105	474.662230	247.308499	-413.407703	489.473533	625.107749	-406.804428	473.048494	541.787962	-392.860686	417.281178	473.561032	-392.615990	496.151127	534.351486	-361.100730	562.664145	256.887325	-346.927497	-133.557699	945.625521	-223.088123	26.710033	84.193234	-426.451320	18.439557	80.355393	-28.259110	
1257	6.2850	854.107484	1426.429038	-94.968580	883.924276	1323.165024	-416.810387	856.470109	1437.786045	-267.001318	626.730145	1301.544605	-31.563146	739.468513	1205.144907	49.140071	773.449484	927.853036	-42.494300	696.443796	1139.896286	-566.299925	790.870894	940.015010	-431.971931	289.385578	1255.404252	-169.673155	417.039825	1222.653533	-351.022106	480.646536	1261.725917	-41.652092	441.400211	1182.233329	-316.081041	488.258691	1190.404794	-81.119583	334.374717	1294.417389	-130.290904	315.141093	1293.111539	-224.073428	401.718583	1137.777684	8.366269	339.490811	1117.348478	-361.368936	475.257211	975.763717	-6.624869	524.335702	904.372003	-26.939370	530.728877	818.618459	-39.455200	553.851313	918.376174	-42.967038	553.144635	710.634551	-65.343120	518.229865	716.290089	-172.303577	431.300269	663.013831	-29.443235	372.197963	597.564852	-46.231223	290.012463	570.213352	-47.134336	390.317221	576.218646	-77.179698	181.082397	515.285286	-49.220049	207.374381	513.297167	-137.908291	127.152244	571.145753	-97.733183	225.478681	290.490347	-102.791367	165.086171	360.109520	-34.868435	404.856056	999.561674	-381.581401	466.462764	938.193036	-389.252801	498.416825	955.965577	-384.882499	488.922423	852.072617	-391.387206	537.833341	734.067522	-381.430520	545.441237	702.916411	-277.619697	357.962072	353.225498	-387.425255	406.306903	373.706281	-318.216979	286.976041	345.919922	-349.019093	470.805069	236.791584	-413.221695	483.591116	617.169994	-405.454917	467.920250	533.720144	-392.114319	413.022045	464.644533	-392.103736	490.936647	526.410671	-360.258698	558.707952	245.599972	-346.657841	-133.577600	945.590878	-222.901727	26.736143	84.183416	-426.440351	18.462937	80.366034	-28.220140	
